<?xml version="1.0" encoding="UTF-8" standalone="no"?>
<!DOCTYPE svg PUBLIC "-//W3C//DTD SVG 1.1//EN" "http://www.w3.org/Graphics/SVG/1.1/DTD/svg11.dtd">
<svg width="100%" height="100%" viewBox="0 0 469 70" version="1.1" xmlns="http://www.w3.org/2000/svg" xmlns:xlink="http://www.w3.org/1999/xlink" xml:space="preserve" xmlns:serif="http://www.serif.com/" style="fill-rule:evenodd;clip-rule:evenodd;stroke-linecap:round;stroke-linejoin:round;stroke-miterlimit:1.5;">
    <g id="Artboard1" transform="matrix(0.208043,0,0,0.0143678,0,0)">
        <rect x="0" y="0" width="2250" height="4872" style="fill:none;"/>
        <g id="Layer1" transform="matrix(4.80671,0,0,69.6,0,0)">
            <g transform="matrix(1.03331,0,0,1.0333,84.9794,52.4491)">
                <text x="0px" y="0px" style="font-family:'Arial-BoldItalicMT', 'Arial', sans-serif;font-weight:700;font-style:italic;font-size:48px;fill:rgb(69,85,96);">BRAINHUNTER</text>
            </g>
            <g transform="matrix(1.10273,0,0,1.42055,-242.656,-586.409)">
                <g>
                    <g transform="matrix(0.937042,0,0,0.727399,22.2249,-16.2822)">
                        <circle cx="275.23" cy="623.765" r="9.816" style="fill:rgb(248,159,61);"/>
                    </g>
                    <g transform="matrix(0.937042,0,0,0.727399,0.145805,-16.1953)">
                        <circle cx="275.23" cy="623.765" r="9.816" style="fill:rgb(248,159,61);"/>
                    </g>
                    <g transform="matrix(0.937042,0,0,0.727399,-21.9332,-16.1953)">
                        <circle cx="275.23" cy="623.765" r="9.816" style="fill:rgb(248,159,61);"/>
                    </g>
                </g>
                <g transform="matrix(0.937042,0,0,0.727399,-5.32907e-14,0.00753578)">
                    <path d="M275.386,587.81L275.386,592.414" style="fill:none;stroke:rgb(248,159,61);stroke-width:2.77px;"/>
                </g>
                <g transform="matrix(0.937042,0,0,0.727399,-2.60082e-17,16.1514)">
                    <path d="M275.386,587.81L275.386,592.414" style="fill:none;stroke:rgb(248,159,61);stroke-width:2.77px;stroke-linecap:butt;"/>
                </g>
                <g transform="matrix(0.937042,0,0,0.727399,-22.079,15.664)">
                    <path d="M275.386,587.81L275.386,592.414" style="fill:none;stroke:rgb(248,159,61);stroke-width:2.77px;stroke-linecap:butt;"/>
                </g>
                <g transform="matrix(0.937042,0,0,0.727399,22.08,17.0991)">
                    <path d="M275.386,587.81L275.386,592.414" style="fill:none;stroke:rgb(248,159,61);stroke-width:2.77px;"/>
                </g>
                <g transform="matrix(0.937042,0,0,0.727399,22.079,0.729965)">
                    <path d="M275.386,587.81L275.386,592.414" style="fill:none;stroke:rgb(248,159,61);stroke-width:2.77px;stroke-linecap:butt;"/>
                </g>
                <g transform="matrix(0.937042,0,0,0.727399,0,0)">
                    <path d="M251.823,588.813L251.823,593.102" style="fill:none;stroke:rgb(248,159,61);stroke-width:2.77px;stroke-linecap:butt;"/>
                </g>
                <g>
                    <g transform="matrix(0.937042,0,0,0.727399,22.2249,-3.55271e-15)">
                        <circle cx="275.23" cy="623.765" r="9.816" style="fill:rgb(248,159,61);"/>
                    </g>
                    <g transform="matrix(0.937042,0,0,0.727399,0.145805,0.0868774)">
                        <circle cx="275.23" cy="623.765" r="9.816" style="fill:rgb(248,159,61);"/>
                    </g>
                    <g transform="matrix(0.937042,0,0,0.727399,-21.9332,0.0868774)">
                        <circle cx="275.23" cy="623.765" r="9.816" style="fill:none;stroke:rgb(248,159,61);stroke-width:1.84px;"/>
                    </g>
                </g>
                <g>
                    <g transform="matrix(0.937042,0,0,0.727399,22.2249,-32.6513)">
                        <circle cx="275.23" cy="623.765" r="9.816" style="fill:rgb(248,159,61);"/>
                    </g>
                    <g transform="matrix(0.937042,0,0,0.727399,0.145805,-32.5644)">
                        <circle cx="275.23" cy="623.765" r="9.816" style="fill:rgb(248,159,61);"/>
                    </g>
                    <g transform="matrix(0.937042,0,0,0.727399,-21.9332,-32.5644)">
                        <circle cx="275.23" cy="623.765" r="9.816" style="fill:none;stroke:rgb(248,159,61);stroke-width:1.84px;"/>
                    </g>
                </g>
                <g transform="matrix(0.937042,0,0,0.727399,0,0)">
                    <path d="M261.64,578.997L267.446,578.997" style="fill:none;stroke:rgb(248,159,61);stroke-width:2.77px;stroke-linecap:butt;"/>
                </g>
                <g transform="matrix(0.937042,0,0,0.727399,-0.526718,16.3691)">
                    <path d="M261.64,578.997L267.446,578.997" style="fill:none;stroke:rgb(248,159,61);stroke-width:2.77px;stroke-linecap:butt;"/>
                </g>
                <g transform="matrix(0.937042,0,0,0.727399,21.2662,16.2822)">
                    <path d="M261.64,578.997L267.446,578.997" style="fill:none;stroke:rgb(248,159,61);stroke-width:2.77px;stroke-linecap:butt;"/>
                </g>
                <g transform="matrix(0.937042,0,0,0.727399,0.366072,32.6513)">
                    <path d="M261.64,578.997L267.446,578.997" style="fill:none;stroke:rgb(248,159,61);stroke-width:2.77px;stroke-linecap:butt;"/>
                </g>
            </g>
        </g>
        <g transform="matrix(8.80828,0,0,127.542,160.174,201.071)">
            <circle cx="231.01" cy="4.834" r="2.837" style="fill:none;stroke:rgb(69,85,96);stroke-width:0.27px;"/>
        </g>
        <g transform="matrix(6.73258,0,0,97.4862,643.132,383.792)">
            <text x="228.518px" y="6.597px" style="font-family:'ArialMT', 'Arial', sans-serif;font-size:6px;fill:rgb(69,85,96);">R</text>
        </g>
    </g>
</svg>
