<?xml version="1.0" encoding="UTF-8" standalone="no"?>
<!DOCTYPE svg PUBLIC "-//W3C//DTD SVG 1.1//EN" "http://www.w3.org/Graphics/SVG/1.1/DTD/svg11.dtd">
<svg width="100%" height="100%" viewBox="0 0 806 128" version="1.1" xmlns="http://www.w3.org/2000/svg" xmlns:xlink="http://www.w3.org/1999/xlink" xml:space="preserve" xmlns:serif="http://www.serif.com/" style="fill-rule:evenodd;clip-rule:evenodd;stroke-linecap:round;stroke-linejoin:round;stroke-miterlimit:1.5;">
    <g transform="matrix(1,0,0,1,-16.2761,-6.50529)">
        <g transform="matrix(1.82815,0,0,1.91834,155.236,102.395)">
            <text x="0px" y="0px" style="font-family:'Arial-BoldItalicMT', 'Arial', sans-serif;font-weight:700;font-style:italic;font-size:48px;fill:rgb(102,102,102);">BRAINHUNTER</text>
        </g>
        <g transform="matrix(1.10273,0,0,1.42055,-242.656,-586.409)">
            <g transform="matrix(1.65784,0,0,1.35042,-125.515,-380.265)">
                <circle cx="275.23" cy="623.765" r="9.816" style="fill:rgb(166,166,166);"/>
            </g>
        </g>
        <g transform="matrix(1.10273,0,0,1.42055,-242.656,-586.409)">
            <g transform="matrix(1.65784,0,0,1.35042,-164.578,-380.104)">
                <circle cx="275.23" cy="623.765" r="9.816" style="fill:rgb(166,166,166);"/>
            </g>
        </g>
        <g transform="matrix(1.10273,0,0,1.42055,-242.656,-586.409)">
            <g transform="matrix(1.65784,0,0,1.35042,-203.64,-380.104)">
                <circle cx="275.23" cy="623.765" r="9.816" style="fill:rgb(166,166,166);"/>
            </g>
        </g>
        <g transform="matrix(1.10273,0,0,1.42055,-242.656,-586.409)">
            <g transform="matrix(1.65784,0,0,1.35042,-164.836,-350.023)">
                <path d="M275.386,587.81L275.386,592.414" style="fill:none;stroke:rgb(166,166,166);stroke-width:2.77px;"/>
            </g>
        </g>
        <g transform="matrix(1.10273,0,0,1.42055,-242.656,-586.409)">
            <g transform="matrix(1.65784,0,0,1.35042,-164.836,-320.052)">
                <path d="M275.386,587.81L275.386,592.414" style="fill:none;stroke:rgb(166,166,166);stroke-width:2.77px;stroke-linecap:butt;"/>
            </g>
        </g>
        <g transform="matrix(1.10273,0,0,1.42055,-242.656,-586.409)">
            <g transform="matrix(1.65784,0,0,1.35042,-203.898,-320.957)">
                <path d="M275.386,587.81L275.386,592.414" style="fill:none;stroke:rgb(166,166,166);stroke-width:2.77px;stroke-linecap:butt;"/>
            </g>
        </g>
        <g transform="matrix(1.10273,0,0,1.42055,-242.656,-586.409)">
            <g transform="matrix(1.65784,0,0,1.35042,-125.771,-318.293)">
                <path d="M275.386,587.81L275.386,592.414" style="fill:none;stroke:rgb(166,166,166);stroke-width:2.77px;"/>
            </g>
        </g>
        <g transform="matrix(1.10273,0,0,1.42055,-242.656,-586.409)">
            <g transform="matrix(1.65784,0,0,1.35042,-125.773,-348.682)">
                <path d="M275.386,587.81L275.386,592.414" style="fill:none;stroke:rgb(166,166,166);stroke-width:2.77px;stroke-linecap:butt;"/>
            </g>
        </g>
        <g transform="matrix(1.10273,0,0,1.42055,-242.656,-586.409)">
            <g transform="matrix(1.65784,0,0,1.35042,-164.836,-350.037)">
                <path d="M251.823,588.813L251.823,593.102" style="fill:none;stroke:rgb(166,166,166);stroke-width:2.77px;stroke-linecap:butt;"/>
            </g>
        </g>
        <g transform="matrix(1.10273,0,0,1.42055,-242.656,-586.409)">
            <g transform="matrix(1.65784,0,0,1.35042,-125.515,-350.037)">
                <circle cx="275.23" cy="623.765" r="9.816" style="fill:rgb(166,166,166);"/>
            </g>
        </g>
        <g transform="matrix(1.10273,0,0,1.42055,-242.656,-586.409)">
            <g transform="matrix(1.65784,0,0,1.35042,-164.578,-349.876)">
                <circle cx="275.23" cy="623.765" r="9.816" style="fill:rgb(166,166,166);"/>
            </g>
        </g>
        <g transform="matrix(1.10273,0,0,1.42055,-242.656,-586.409)">
            <g transform="matrix(1.65784,0,0,1.35042,-203.64,-349.876)">
                <circle cx="275.23" cy="623.765" r="9.816" style="fill:none;stroke:rgb(166,166,166);stroke-width:1.84px;"/>
            </g>
        </g>
        <g transform="matrix(1.10273,0,0,1.42055,-242.656,-586.409)">
            <g transform="matrix(1.65784,0,0,1.35042,-125.515,-410.655)">
                <circle cx="275.23" cy="623.765" r="9.816" style="fill:rgb(166,166,166);"/>
            </g>
        </g>
        <g transform="matrix(1.10273,0,0,1.42055,-242.656,-586.409)">
            <g transform="matrix(1.65784,0,0,1.35042,-164.578,-410.493)">
                <circle cx="275.23" cy="623.765" r="9.816" style="fill:rgb(166,166,166);"/>
            </g>
        </g>
        <g transform="matrix(1.10273,0,0,1.42055,-242.656,-586.409)">
            <g transform="matrix(1.65784,0,0,1.35042,-203.64,-410.493)">
                <circle cx="275.23" cy="623.765" r="9.816" style="fill:none;stroke:rgb(166,166,166);stroke-width:1.84px;"/>
            </g>
        </g>
        <g transform="matrix(1.10273,0,0,1.42055,-242.656,-586.409)">
            <g transform="matrix(1.65784,0,0,1.35042,-164.836,-350.037)">
                <path d="M261.64,578.997L267.446,578.997" style="fill:none;stroke:rgb(166,166,166);stroke-width:2.77px;stroke-linecap:butt;"/>
            </g>
        </g>
        <g transform="matrix(1.10273,0,0,1.42055,-242.656,-586.409)">
            <g transform="matrix(1.65784,0,0,1.35042,-165.767,-319.648)">
                <path d="M261.64,578.997L267.446,578.997" style="fill:none;stroke:rgb(166,166,166);stroke-width:2.77px;stroke-linecap:butt;"/>
            </g>
        </g>
        <g transform="matrix(1.10273,0,0,1.42055,-242.656,-586.409)">
            <g transform="matrix(1.65784,0,0,1.35042,-127.211,-319.809)">
                <path d="M261.64,578.997L267.446,578.997" style="fill:none;stroke:rgb(166,166,166);stroke-width:2.77px;stroke-linecap:butt;"/>
            </g>
        </g>
        <g transform="matrix(1.10273,0,0,1.42055,-242.656,-586.409)">
            <g transform="matrix(1.65784,0,0,1.35042,-164.188,-289.42)">
                <path d="M261.64,578.997L267.446,578.997" style="fill:none;stroke:rgb(166,166,166);stroke-width:2.77px;stroke-linecap:butt;"/>
            </g>
        </g>
        <g transform="matrix(0.373333,0,0,0.0287356,0,0)">
            <g transform="matrix(8.68421,0,0,118.392,171.01,361.414)">
                <circle cx="231.01" cy="4.834" r="2.837" style="fill:none;stroke:rgb(102,102,102);stroke-width:0.15px;"/>
            </g>
        </g>
        <g transform="matrix(0.373333,0,0,0.0287356,0,0)">
            <g transform="matrix(6.63774,0,0,90.4922,647.165,531.026)">
                <text x="228.518px" y="6.597px" style="font-family:'ArialMT', 'Arial', sans-serif;font-size:6px;fill:rgb(102,102,102);">R</text>
            </g>
        </g>
    </g>
</svg>
